<?xml version="1.0" encoding="iso-8859-1"?>
<!-- Generator: Adobe Illustrator 16.0.0, SVG Export Plug-In . SVG Version: 6.00 Build 0)  -->
<!DOCTYPE svg PUBLIC "-//W3C//DTD SVG 1.1//EN" "http://www.w3.org/Graphics/SVG/1.1/DTD/svg11.dtd">
<svg version="1.1" id="Capa_1" xmlns="http://www.w3.org/2000/svg" xmlns:xlink="http://www.w3.org/1999/xlink" x="0px" y="0px"
	 width="75.834px" height="75.835px" viewBox="0 0 75.834 75.835" style="enable-background:new 0 0 75.834 75.835;"
	 xml:space="preserve">
<g>
	<g>
		<path d="M42.056,37.404c-0.439,8.176,11.969,12.264,14.149,7.136C58.774,38.5,55.27,5.673,55.27,5.673
			S42.961,20.546,42.056,37.404z"/>
		<path d="M62.608,5.671c0,0-3.504,32.824-0.933,38.869c2.179,5.123,14.585,1.036,14.147-7.14
			C74.919,20.546,62.608,5.671,62.608,5.671z"/>
		<path d="M19.629,67.898c2.18,5.123,14.585,1.035,14.148-7.14c-0.905-16.857-13.212-31.729-13.212-31.729
			S17.06,61.858,19.629,67.898z"/>
		<path d="M0.011,60.764c-0.439,8.175,11.969,12.263,14.148,7.135c2.57-6.04-0.934-38.867-0.934-38.867S0.916,43.904,0.011,60.764z"
			/>
	</g>
</g>
<g>
</g>
<g>
</g>
<g>
</g>
<g>
</g>
<g>
</g>
<g>
</g>
<g>
</g>
<g>
</g>
<g>
</g>
<g>
</g>
<g>
</g>
<g>
</g>
<g>
</g>
<g>
</g>
<g>
</g>
</svg>
